# xmcd
#
# Track frame offsets:
#	150
#	19950
#	32025
#	49950
#	67275
#	89625
#	110025
#	127800
#	147225
#	166500
#	190425
#
# Disc length: 2856 seconds
#
# Revision: 0
# Processed by: cddbd v1.5.2PL0 Copyright (c) Steve Scherf et al.
# Submitted via: EZCDAudioConverter 7.0.8.1
#
DISCID=a10b260b
DTITLE=Plattsatt - Live ... dat woret - CD1
DYEAR=2017
DGENRE=Blues
TTITLE0=Cadillac
TTITLE1=So lang alleen
TTITLE2=Fernseh-Blues
TTITLE3=Lang Jeschoss
TTITLE4=Bähre-Ticket-Leed
TTITLE5=Jerd
TTITLE6=Dor alde Daach
TTITLE7=Pechvuurel
TTITLE8=Badewannenblues
TTITLE9=Könne min Oohre löhje
TTITLE10=Dat isset
EXTD=
EXTT0=
EXTT1=
EXTT2=
EXTT3=
EXTT4=
EXTT5=
EXTT6=
EXTT7=
EXTT8=
EXTT9=
EXTT10=
PLAYORDER=
